<?xml version="1.0" encoding="UTF-8" standalone="no"?>
<!-- Created with Inkscape (http://www.inkscape.org/) -->

<svg xmlns:dc="http://purl.org/dc/elements/1.1/" xmlns:cc="http://creativecommons.org/ns#" xmlns:rdf="http://www.w3.org/1999/02/22-rdf-syntax-ns#" xmlns:svg="http://www.w3.org/2000/svg" xmlns="http://www.w3.org/2000/svg" xmlns:sodipodi="http://sodipodi.sourceforge.net/DTD/sodipodi-0.dtd" xmlns:inkscape="http://www.inkscape.org/namespaces/inkscape" width="752.73914" height="158.98701" viewBox="0 0 199.16223 42.065314" version="1.1" id="svg989" inkscape:version="0.92.3 (unknown)" sodipodi:docname="logo.svg">
    <defs id="defs983" />
    <sodipodi:namedview id="base" pagecolor="#ffffff" bordercolor="#666666" borderopacity="1.0" inkscape:pageopacity="0.0" inkscape:pageshadow="2" inkscape:zoom="0.7" inkscape:cx="451.7966" inkscape:cy="28.319572" inkscape:document-units="mm" inkscape:current-layer="layer1" showgrid="false" fit-margin-top="4" fit-margin-left="4" fit-margin-right="4" fit-margin-bottom="4" units="px" inkscape:window-width="1920" inkscape:window-height="1047" inkscape:window-x="1920" inkscape:window-y="0" inkscape:window-maximized="1" />
    <metadata id="metadata986">
        <rdf:RDF>
            <cc:Work rdf:about="">
                <dc:format>image/svg+xml</dc:format>
                <dc:type rdf:resource="http://purl.org/dc/dcmitype/StillImage" />
                <dc:title></dc:title>
            </cc:Work>
        </rdf:RDF>
    </metadata>
    <g inkscape:label="Ebene 1" inkscape:groupmode="layer" id="layer1" transform="translate(269.67042,50.604081)">
        <g id="g1054" transform="translate(-651.60598,-197.74751)">
            <path style="fill:#bf616a;fill-opacity:1;fill-rule:evenodd;stroke:none;stroke-width:0.26863024px;stroke-linecap:butt;stroke-linejoin:miter;stroke-opacity:1" d="m 422.96662,184.11676 5.48737,-22.85293 -7.87296,4.54546 -1.76932,-13.57365 -5.48738,22.85292 7.87343,-4.54572 z" id="path996" inkscape:connector-curvature="0" />
            <path inkscape:connector-curvature="0" id="path998" d="m 438.26446,158.17603 a 20,20 0 0 1 2.67942,9.99988 20,20 0 0 1 -2.67976,10.00047" style="color:#000000;clip-rule:nonzero;display:inline;overflow:visible;visibility:visible;opacity:1;isolation:auto;mix-blend-mode:normal;color-interpolation:sRGB;color-interpolation-filters:linearRGB;solid-color:#000000;solid-opacity:1;fill:none;fill-opacity:1;fill-rule:evenodd;stroke:#2e3440;stroke-width:3.9000001;stroke-linecap:round;stroke-linejoin:round;stroke-miterlimit:4;stroke-dasharray:none;stroke-dashoffset:0;stroke-opacity:1;paint-order:fill markers stroke;color-rendering:auto;image-rendering:auto;shape-rendering:auto;text-rendering:auto;enable-background:accumulate" />
            <path inkscape:connector-curvature="0" id="path1000" d="m 403.62344,178.17601 a 20,20 0 0 1 -2.67955,-10.0001 20,20 0 0 1 2.6794,-9.99985" style="color:#000000;clip-rule:nonzero;display:inline;overflow:visible;visibility:visible;opacity:1;isolation:auto;mix-blend-mode:normal;color-interpolation:sRGB;color-interpolation-filters:linearRGB;solid-color:#000000;solid-opacity:1;fill:none;fill-opacity:1;fill-rule:evenodd;stroke:#2e3440;stroke-width:3.9000001;stroke-linecap:round;stroke-linejoin:round;stroke-miterlimit:4;stroke-dasharray:none;stroke-dashoffset:0;stroke-opacity:1;paint-order:fill markers stroke;color-rendering:auto;image-rendering:auto;shape-rendering:auto;text-rendering:auto;enable-background:accumulate" />
            <path inkscape:connector-curvature="0" id="path1002" d="m 445.19252,154.17578 a 27.999999,27.999999 0 0 1 3.75136,14.00013 27.999999,27.999999 0 0 1 -3.75173,14.00077" style="color:#000000;clip-rule:nonzero;display:inline;overflow:visible;visibility:visible;opacity:1;isolation:auto;mix-blend-mode:normal;color-interpolation:sRGB;color-interpolation-filters:linearRGB;solid-color:#000000;solid-opacity:1;fill:none;fill-opacity:1;fill-rule:evenodd;stroke:#2e3440;stroke-width:3.9000001;stroke-linecap:round;stroke-linejoin:round;stroke-miterlimit:4;stroke-dasharray:none;stroke-dashoffset:0;stroke-opacity:1;paint-order:fill markers stroke;color-rendering:auto;image-rendering:auto;shape-rendering:auto;text-rendering:auto;enable-background:accumulate" />
            <path inkscape:connector-curvature="0" id="path1004" d="m 396.69507,182.17573 a 27.999999,27.999999 0 0 1 -3.75118,-13.99982 27.999999,27.999999 0 0 1 3.75137,-14.00015" style="color:#000000;clip-rule:nonzero;display:inline;overflow:visible;visibility:visible;opacity:1;isolation:auto;mix-blend-mode:normal;color-interpolation:sRGB;color-interpolation-filters:linearRGB;solid-color:#000000;solid-opacity:1;fill:none;fill-opacity:1;fill-rule:evenodd;stroke:#2e3440;stroke-width:3.9000001;stroke-linecap:round;stroke-linejoin:round;stroke-miterlimit:4;stroke-dasharray:none;stroke-dashoffset:0;stroke-opacity:1;paint-order:fill markers stroke;color-rendering:auto;image-rendering:auto;shape-rendering:auto;text-rendering:auto;enable-background:accumulate" />
            <path inkscape:connector-curvature="0" id="path1006" d="m 452.12099,150.17623 a 35.999999,35.999999 0 0 1 4.82289,17.99968 35.999999,35.999999 0 0 1 -4.82332,18.00042" style="color:#000000;clip-rule:nonzero;display:inline;overflow:visible;visibility:visible;opacity:1;isolation:auto;mix-blend-mode:normal;color-interpolation:sRGB;color-interpolation-filters:linearRGB;solid-color:#000000;solid-opacity:1;fill:none;fill-opacity:1;fill-rule:evenodd;stroke:#2e3440;stroke-width:3.9000001;stroke-linecap:round;stroke-linejoin:round;stroke-miterlimit:4;stroke-dasharray:none;stroke-dashoffset:0;stroke-opacity:1;paint-order:fill markers stroke;color-rendering:auto;image-rendering:auto;shape-rendering:auto;text-rendering:auto;enable-background:accumulate" />
            <path inkscape:connector-curvature="0" id="path1008" d="m 389.76683,186.17567 a 35.999999,35.999999 0 0 1 -4.82294,-17.99976 35.999999,35.999999 0 0 1 4.82312,-18.00007" style="color:#000000;clip-rule:nonzero;display:inline;overflow:visible;visibility:visible;opacity:1;isolation:auto;mix-blend-mode:normal;color-interpolation:sRGB;color-interpolation-filters:linearRGB;solid-color:#000000;solid-opacity:1;fill:none;fill-opacity:1;fill-rule:evenodd;stroke:#2e3440;stroke-width:3.9000001;stroke-linecap:round;stroke-linejoin:round;stroke-miterlimit:4;stroke-dasharray:none;stroke-dashoffset:0;stroke-opacity:1;paint-order:fill markers stroke;color-rendering:auto;image-rendering:auto;shape-rendering:auto;text-rendering:auto;enable-background:accumulate" />
        </g>
        <g aria-label="PODSBLITZ" transform="matrix(0.5227171,0,0,0.5227171,-1135.7043,-322.04804)" style="font-style:normal;font-weight:normal;font-size:50px;line-height:163.99999857%;font-family:Sans;letter-spacing:0px;word-spacing:0px;fill:#2e3440;fill-opacity:1;stroke:none;stroke-width:1px;stroke-linecap:butt;stroke-linejoin:miter;stroke-opacity:1" id="flowRoot1074">
            <path d="m 1835.5645,542.27595 h -10.15 V 577.276 h 7.1 v -11.25002 h 3.05 c 7.25,0 11.55,-4.4 11.55,-11.85001 0,-7.50001 -4.3,-11.90002 -11.55,-11.90002 z m -0.1,17.00002 h -2.95 v -10.25001 h 2.95 c 2.85,0 4.35,1.75 4.35,5.15001 0,3.35 -1.5,5.1 -4.35,5.1 z" style="font-style:normal;font-variant:normal;font-weight:900;font-stretch:normal;font-size:50.00007629px;font-family:Akrobat;-inkscape-font-specification:'Akrobat, Heavy';font-variant-ligatures:normal;font-variant-caps:normal;font-variant-numeric:normal;font-feature-settings:normal;text-align:start;letter-spacing:1.01233852px;writing-mode:lr-tb;text-anchor:start;fill:#2e3440;fill-opacity:1" id="path1562" />
            <path d="m 1862.9487,577.876 c 7.1,0 11.35,-4.45 11.35,-11.95002 v -12.30001 c 0,-7.50002 -4.25,-11.95002 -11.35,-11.95002 -7.1,0 -11.35,4.45 -11.35,11.95002 v 12.30001 c 0,7.50002 4.25,11.95002 11.35,11.95002 z m 0,-6.90001 c -2.65,0 -4,-1.75 -4,-5.05001 v -12.30001 c 0,-3.30001 1.35,-5.05001 4,-5.05001 2.65,0 4,1.75 4,5.05001 v 12.30001 c 0,3.30001 -1.35,5.05001 -4,5.05001 z" style="font-style:normal;font-variant:normal;font-weight:900;font-stretch:normal;font-size:50.00007629px;font-family:Akrobat;-inkscape-font-specification:'Akrobat, Heavy';font-variant-ligatures:normal;font-variant-caps:normal;font-variant-numeric:normal;font-feature-settings:normal;text-align:start;letter-spacing:1.01233852px;writing-mode:lr-tb;text-anchor:start;fill:#2e3440;fill-opacity:1" id="path1564" />
            <path d="m 1880.4666,577.276 h 9.7 c 7,0 11.1,-4.4 11.1,-11.85002 v -11.55001 c 0,-7.30001 -4.15,-11.60002 -11.2,-11.60002 h -9.6 z m 7.1,-6.75001 v -21.50003 h 2.6 c 2.55,0 3.9,1.65 3.9,4.85001 v 11.55001 c 0,3.35001 -1.35,5.10001 -3.9,5.10001 z" style="font-style:normal;font-variant:normal;font-weight:900;font-stretch:normal;font-size:50.00007629px;font-family:Akrobat;-inkscape-font-specification:'Akrobat, Heavy';font-variant-ligatures:normal;font-variant-caps:normal;font-variant-numeric:normal;font-feature-settings:normal;text-align:start;letter-spacing:1.01233852px;writing-mode:lr-tb;text-anchor:start;fill:#2e3440;fill-opacity:1" id="path1566" />
            <path d="m 1916.1555,577.976 c 6.95,0 11,-4.2 11,-9.95001 0,-11.15002 -13.9,-11.50002 -13.9,-17.00003 0,-1.6 1.1,-2.6 2.95,-2.6 2.05,0 3.1,1.15 3.1,3.45 h 7.3 c 0,-6.45001 -3.9,-10.30001 -10.35,-10.30001 -6.45,0 -10.2,3.9 -10.2,9.25001 0,10.65002 13.7,11.35002 13.7,17.15003 0,1.75 -1.15,3.1 -3.5,3.1 -2.25,0 -3.65,-1.2 -3.65,-4 h -7.3 c 0,7.05001 4.2,10.90001 10.85,10.90001 z" style="font-style:normal;font-variant:normal;font-weight:900;font-stretch:normal;font-size:50.00007629px;font-family:Akrobat;-inkscape-font-specification:'Akrobat, Heavy';font-variant-ligatures:normal;font-variant-caps:normal;font-variant-numeric:normal;font-feature-settings:normal;text-align:start;letter-spacing:1.01233852px;writing-mode:lr-tb;text-anchor:start;fill:#2e3440;fill-opacity:1" id="path1568" />
            <path d="m 1949.1054,559.37597 c 1.85,-1.7 2.95,-4.5 2.95,-7.15001 0,-5.95001 -3.85,-9.95001 -9.25,-9.95001 h -10.9 V 577.276 h 11.05 c 6,0 10.3,-4.2 10.3,-10.45001 0,-3.15001 -1.55,-5.95001 -4.15,-7.45002 z m -7.55,-10.40001 c 2.3,0 3.3,1.2 3.3,3.55 0,2.45001 -1.05,3.75001 -3.05,3.75001 h -2.8 v -7.30001 z m 0.15,21.60003 h -2.7 v -7.65001 h 2.85 c 2.65,0 4.1,1.3 4.1,3.85001 0,2.5 -1.45,3.8 -4.25,3.8 z" style="font-style:normal;font-variant:normal;font-weight:900;font-stretch:normal;font-size:50.00007629px;font-family:Akrobat;-inkscape-font-specification:'Akrobat, Heavy';font-variant-ligatures:normal;font-variant-caps:normal;font-variant-numeric:normal;font-feature-settings:normal;text-align:start;letter-spacing:1.01233852px;writing-mode:lr-tb;text-anchor:start;fill:#2e3440;fill-opacity:1" id="path1570" />
            <path d="m 1965.6037,570.52599 v -28.25004 h -7.1 V 577.276 h 17.5 v -6.75001 z" style="font-style:normal;font-variant:normal;font-weight:900;font-stretch:normal;font-size:50.00007629px;font-family:Akrobat;-inkscape-font-specification:'Akrobat, Heavy';font-variant-ligatures:normal;font-variant-caps:normal;font-variant-numeric:normal;font-feature-settings:normal;text-align:start;letter-spacing:1.01233852px;writing-mode:lr-tb;text-anchor:start;fill:#2e3440;fill-opacity:1" id="path1572" />
            <path d="M 1980.4145,542.27595 V 577.276 h 7.1 v -35.00005 z" style="font-style:normal;font-variant:normal;font-weight:900;font-stretch:normal;font-size:50.00007629px;font-family:Akrobat;-inkscape-font-specification:'Akrobat, Heavy';font-variant-ligatures:normal;font-variant-caps:normal;font-variant-numeric:normal;font-feature-settings:normal;text-align:start;letter-spacing:1.01233852px;writing-mode:lr-tb;text-anchor:start;fill:#2e3440;fill-opacity:1" id="path1574" />
            <path d="m 2013.3581,542.27595 h -21 v 6.75001 h 6.85 V 577.276 h 7.3 v -28.25004 h 6.85 z" style="font-style:normal;font-variant:normal;font-weight:900;font-stretch:normal;font-size:50.00007629px;font-family:Akrobat;-inkscape-font-specification:'Akrobat, Heavy';font-variant-ligatures:normal;font-variant-caps:normal;font-variant-numeric:normal;font-feature-settings:normal;text-align:start;letter-spacing:1.01233852px;writing-mode:lr-tb;text-anchor:start;fill:#2e3440;fill-opacity:1" id="path1576" />
            <path d="m 2024.5314,570.52599 11,-23.35003 v -4.90001 h -18.95 v 6.75001 h 10.25 l -11.1,23.50003 v 4.75001 h 20.05 v -6.75001 z" style="font-style:normal;font-variant:normal;font-weight:900;font-stretch:normal;font-size:50.00007629px;font-family:Akrobat;-inkscape-font-specification:'Akrobat, Heavy';font-variant-ligatures:normal;font-variant-caps:normal;font-variant-numeric:normal;font-feature-settings:normal;text-align:start;letter-spacing:1.01233852px;writing-mode:lr-tb;text-anchor:start;fill:#2e3440;fill-opacity:1" id="path1578" />
        </g>
    </g>
</svg>
